The Dirty Dozen 1967 BluRay 1080p ac3 x264-LoNeWoLf

Encoded by Tequila-Bob a.k.a. bobnjeff a.k.a.LoNeWoLf

Source - NTSC BluRay Disc.

Movie has been tested and is DXVA Compliant


The Dirty Dozen (1967) 

General Information:

RUNTIME........: 2h 29mn
SIZE...........: 10.7 GiB
VIDEO CODEC....: x264 (L4.1)
RESOLUTION.....: 1920x1072
BITRATE........: Overall bit rate : 10.2 Mbps 
FRAMERATE......: 23.976 fps
AUDIO 1........: English AC3 6 Channel 640 Kbps
SUBTITLES......:  English, French, Spanish
CHAPTERS.......: YES
SOURCE.........: NTSC Blu-ray 
ENCODED DATE...: UTC 2011-01-21 19:22:25
Encoder........: TequilaBob a.k.a. LoNeWoLf
GENRE..........: Action , Drama , War
RATING.........: 7.8/10 X  Users: 7.8/10 (21,472 votes) 118 reviews | Critics: 59 reviews
Release Date...: Release Date:15 June 1967 (USA)
Rated..........: NR (Not Rated)
IMDB link......: http://www.imdb.com/title/tt0061578/




Director: Robert Aldrich
Writers: Nunnally Johnson (screenplay), Lukas Heller (screenplay), and 1 more credit » 
Stars:Lee Marvin, Ernest Borgnine ,Charles Bronson 


Storyline
 A model for dozens of action films to follow, this box-office hit from 1967 refined a die-hard formula that has become overly familiar, but it's rarely been handled better than it was in this action-packed World War II thriller. Lee Marvin is perfectly cast as a down-but-not-out army major who is offered a shot at personal and professional redemption. If he can successfully train and discipline a squad of army rejects, misfits, killers, prisoners, and psychopaths into a first-rate unit of specialized soldiers, they'll earn a second chance to make up for their woeful misdeeds. Of course, there's a catch: to obtain their pardons, Marvin's band of badmen must agree to a suicide mission that will parachute them into the danger zone of Nazi-occupied France. It's a hazardous path to glory, but the men have no other choice than to accept and regain their lost honor. What makes The Dirty Dozen special is its phenomenal cast including Charles Bronson, Donald Sutherland, Telly Savalas, George Kennedy, Ernest Borgnine, John Cassavetes, Richard Jaeckel, Jim Brown, Clint Walker, Trini Lopez, Robert Ryan, and others. Cassavetes is the Oscar-nominated standout as one of Marvin's most rebellious yet heroic men, but it's the whole ensemble--combined with the hard-as-nails direction of Robert Aldrich--that makes this such a high-velocity crowd pleaser. The script by Nunnally Johnson and Lukas Heller (from the novel by E.M. Nathanson) is strong enough to support the all-star lineup with ample humor and military grit, so if you're in need of a mainline jolt of testosterone, The Dirty Dozen is the movie for you. --Jeff Shannon 


Cast
Cast overview, first billed only: 
  Lee Marvin  ...  Major Reisman  
  Ernest Borgnine  ...  General Worden  
  Charles Bronson  ...  Joseph Wladislaw  
  Jim Brown  ...  Robert Jefferson  
  John Cassavetes  ...  Victor Franko  
  Richard Jaeckel  ...  Sergeant Bowren  
  George Kennedy  ...  Major Max Armbruster  
  Trini López  ...  Pedro Jiminez (as Trini Lopez)  
  Ralph Meeker  ...  Captain Stuart Kinder  
  Robert Ryan  ...  Col. Everett Dasher Breed  
  Telly Savalas  ...  Archer Maggott  
  Donald Sutherland  ...  Vernon Pinkley  
  Clint Walker  ...  Samson Posey  
  Robert Webber  ...  General Denton  
  Tom Busby  ...  Milo Vladek 
 

[img]http://torrent-stats.info/96a1/abc3df6c.png[/img]

See all 20 full size 1920x1072 PNG files at the link below
 
http://s1015.photobucket.com/albums/af279/tequila-bob/The%20Dirty%20Dozen%201967/


Format : Matroska 
File size : 10.7 GiB 
Duration : 2h 29mn 
Overall bit rate : 10.2 Mbps 
Encoded date : UTC 2011-01-21 19:22:25 
Writing application : mkvmerge v4.4.0 ('Die Wiederkehr') built on Oct 31 2010 21:52:48 
Writing library : libebml v1.0.0 + libmatroska v1.0.0 

Video 
ID : 1 
Format : AVC 
Format/Info : Advanced Video Codec 
Format profile : High@L4.1 
Format settings, CABAC : Yes 
Format settings, ReFrames : 3 frames 
Muxing mode : Container profile=Unknown@4.1 
Codec ID : V_MPEG4/ISO/AVC 
Duration : 2h 29mn 
Bit rate : 9 499 Kbps 
Width : 1 920 pixels 
Height : 1 072 pixels 
Display aspect ratio : 16:9 
Frame rate : 23.976 fps 
Color space : YUV 
Chroma subsampling : 4:2:0 
Bit depth : 8 bits 
Scan type : Progressive 
Bits/(Pixel*Frame) : 0.192 
Stream size : 9.78 GiB (92%) 
Writing library : x264 core 112 r1867 22bfd31 
Encoding settings : cabac=1 / ref=4 / deblock=1:-3:-1 / analyse=0x3:0x113 / me=umh / subme=9 / psy=1 / psy_rd=1.00:0.08 / mixed_ref=1 / me_range=32 / chroma_me=1 / trellis=2 / 8x8dct=1 / cqm=0 / deadzone=21,11 / fast_pskip=0 / chroma_qp_offset=-3 / threads=6 / sliced_threads=0 / nr=0 / decimate=1 / interlaced=0 / constrained_intra=0 / bframes=6 / b_pyramid=1 / b_adapt=2 / b_bias=0 / direct=1 / weightb=1 / open_gop=2 / weightp=2 / keyint=250 / keyint_min=23 / scenecut=40 / intra_refresh=0 / rc_lookahead=100 / rc=2pass / mbtree=1 / bitrate=9499 / ratetol=1.0 / qcomp=0.60 / qpmin=10 / qpmax=51 / qpstep=4 / cplxblur=20.0 / qblur=0.5 / vbv_maxrate=50000 / vbv_bufsize=50000 / nal_hrd=none / ip_ratio=1.40 / aq=1:1.50 
Language : English 

Audio 
ID : 2 
Format : AC-3 
Format/Info : Audio Coding 3 
Mode extension : CM (complete main) 
Codec ID : A_AC3 
Duration : 2h 29mn 
Bit rate mode : Constant 
Bit rate : 640 Kbps 
Channel(s) : 6 channels 
Channel positions : Front: L C R, Side: L R, LFE 
Sampling rate : 48.0 KHz 
Bit depth : 16 bits 
Stream size : 685 MiB (6%) 
Title : 3/2+1 
Language : English 

Text #1 
ID : 3 
Format : PGS 
Codec ID : S_HDMV/PGS 
Codec ID/Info : The same subtitle format used on BDs/HD-DVDs 
Language : English 

Text #2 
ID : 4 
Format : PGS 
Codec ID : S_HDMV/PGS 
Codec ID/Info : The same subtitle format used on BDs/HD-DVDs 
Language : French 

Text #3 
ID : 5 
Format : PGS 
Codec ID : S_HDMV/PGS 
Codec ID/Info : The same subtitle format used on BDs/HD-DVDs 
Language : Spanish 

Text #4 
ID : 6 
Format : PGS 
Codec ID : S_HDMV/PGS 
Codec ID/Info : The same subtitle format used on BDs/HD-DVDs 
Language : English 

Menu & 36 Chapters



See all 20 full size 1920x1072 PNG files at the link below
 
http://s1015.photobucket.com/albums/af279/tequila-bob/The%20Dirty%20Dozen%201967/


[url=http://www.phyrefile.com/image/view/BYqPyFL9IaemypIm][img]http://thumb.phyrefile.com/t/te/tequilabob/2011/01/22/300/vlcsnap-2011-01-22-07h21m30s122.png[/img][/url]
[url=http://www.phyrefile.com/image/view/KGdbO9alo5p5RTdP][img]http://thumb.phyrefile.com/t/te/tequilabob/2011/01/22/300/vlcsnap-2011-01-22-07h31m51s195.png[/img][/url]
[url=http://www.phyrefile.com/image/view/sE5c8w8DwwRBrQaM][img]http://thumb.phyrefile.com/t/te/tequilabob/2011/01/22/300/vlcsnap-2011-01-22-07h32m49s4.png[/img][/url]
[url=http://www.phyrefile.com/image/view/OoM6hCYHnIMipIsS][img]http://thumb.phyrefile.com/t/te/tequilabob/2011/01/22/300/vlcsnap-2011-01-22-07h38m04s75.png[/img][/url]
[url=http://www.phyrefile.com/image/view/keAhtIw1msc1RqZx][img]http://thumb.phyrefile.com/t/te/tequilabob/2011/01/22/300/vlcsnap-2011-01-22-07h39m58s197.png[/img][/url]
[url=http://www.phyrefile.com/image/view/fssFkgLs7DoZnm8I][img]http://thumb.phyrefile.com/t/te/tequilabob/2011/01/22/300/vlcsnap-2011-01-22-07h42m44s67.png[/img][/url]
[url=http://www.phyrefile.com/image/view/lmCoOd1QFXJiASEw][img]http://thumb.phyrefile.com/t/te/tequilabob/2011/01/22/300/vlcsnap-2011-01-22-07h43m02s246.png[/img][/url]
[url=http://www.phyrefile.com/image/view/4x8VEiutdavLZrut][img]http://thumb.phyrefile.com/t/te/tequilabob/2011/01/22/300/vlcsnap-2011-01-22-07h44m38s183.png[/img][/url]